<?xml version="1.0" standalone="no"?><!DOCTYPE svg PUBLIC "-//W3C//DTD SVG 1.1//EN" "http://www.w3.org/Graphics/SVG/1.1/DTD/svg11.dtd"><svg class="icon" width="16px" height="16.00px" viewBox="0 0 1024 1024" version="1.1" xmlns="http://www.w3.org/2000/svg"><path fill="" d="M1003.314613 387.546415a520.335904 520.335904 0 0 0-511.853756-387.107683c546.58669 268.6501 301.116252 649.396173 301.116253 649.396172L475.593391 324.807769l121.089974-132.789489-82.847187-76.778063-65.809768 59.15567-122.625536-1.535561-250.150243 254.318194L226.978709 564.720937l94.034847-91.183091 323.418452 315.082548c-274.134247 180.757498-524.211368-116.995144-524.211368-116.995144L21.505987 757.982291l74.80377 87.746358-12.869465 17.549272a58.863182 58.863182 0 0 0-49.284205 12.796343 72.463867 72.463867 0 0 0 17.47615 129.572123 74.511282 74.511282 0 0 0 95.64353-81.677235l19.084833-23.837761c377.748072 204.741502 600.770066 20.766638 600.770066 20.766638L875.789906 1023.707512 1024.008129 874.977435l-97.252213-105.588118s132.350757-194.870037 76.558697-382.208512z m0 0" /></svg>