<?xml version="1.0" standalone="no"?><!DOCTYPE svg PUBLIC "-//W3C//DTD SVG 1.1//EN" "http://www.w3.org/Graphics/SVG/1.1/DTD/svg11.dtd"><svg t="1543476177489" class="icon" style="" viewBox="0 0 1097 1024" version="1.1" xmlns="http://www.w3.org/2000/svg" p-id="2616" xmlns:xlink="http://www.w3.org/1999/xlink" width="17.140625" height="16"><defs><style type="text/css"></style></defs><path d="M1024 877.714286h-200.996571l-140.653715 146.285714-142.994285-146.285714H219.428571a73.142857 73.142857 0 0 1-73.142857-73.142857V219.428571a73.142857 73.142857 0 0 1 73.142857-73.142857h804.571429a73.142857 73.142857 0 0 1 73.142857 73.142857v585.142858a73.142857 73.142857 0 0 1-73.142857 73.142857zM365.714286 438.857143a73.142857 73.142857 0 1 0 73.142857 73.142857 73.142857 73.142857 0 0 0-73.142857-73.142857z m256 0a73.142857 73.142857 0 1 0 73.142857 73.142857 73.142857 73.142857 0 0 0-73.142857-73.142857zM877.714286 438.857143a73.142857 73.142857 0 1 0 73.142857 73.142857 73.142857 73.142857 0 0 0-73.142857-73.142857zM73.142857 731.428571a73.142857 73.142857 0 0 1-73.142857-73.142857V73.142857a73.142857 73.142857 0 0 1 73.142857-73.142857h804.571429a73.142857 73.142857 0 0 1 73.142857 73.142857H73.142857v658.285714z" p-id="2617"></path></svg>