<?xml version="1.0" standalone="no"?><!DOCTYPE svg PUBLIC "-//W3C//DTD SVG 1.1//EN" "http://www.w3.org/Graphics/SVG/1.1/DTD/svg11.dtd"><svg class="icon" width="200px" height="200.00px" viewBox="0 0 1024 1024" version="1.1" xmlns="http://www.w3.org/2000/svg"><path fill="" d="M371.646 682.714h463.361v58.711h-463.361v-58.711zM371.646 574.67h463.361v58.713h-463.361v-58.713zM940.342 144.753h-856.524c-6.697 0-12.098 5.462-12.098 12.33v717.745c0 6.812 5.398 12.329 12.098 12.329h856.524c6.694 0 12.098-5.457 12.098-12.329v-717.745c-0.001-6.81-5.406-12.33-12.098-12.33zM893.725 828.448h-763.284v-507.855l763.284 1.363v506.492zM373.009 453.001h461.998v58.716h-461.998v-58.716zM186.197 453.905h92.289v58.082h-92.289v-58.082zM186.197 576.003h92.289v58.082h-92.289v-58.082zM186.197 682.671h92.289v58.082h-92.289v-58.082z" /></svg>