<?xml version="1.0" standalone="no"?><!DOCTYPE svg PUBLIC "-//W3C//DTD SVG 1.1//EN" "http://www.w3.org/Graphics/SVG/1.1/DTD/svg11.dtd"><svg class="icon" width="16px" height="16.00px" viewBox="0 0 1024 1024" version="1.1" xmlns="http://www.w3.org/2000/svg"><path fill="" d="M905.216 286.72v565.248H112.64V286.72h792.576m67.584-112.64H45.056C16.384 174.08 0 196.608 0 219.136V921.6c0 22.528 16.384 45.056 45.056 45.056h933.888c22.528 0 45.056-16.384 45.056-45.056V219.136c-6.144-22.528-22.528-45.056-51.2-45.056z m0 0"  /><path fill="" d="M225.28 401.408h565.248v112.64H225.28v-112.64z m0 225.28h395.264v112.64H225.28v-112.64z m0 0M282.624 286.72c-34.816 0-57.344-22.528-57.344-57.344V118.784C225.28 83.968 249.856 61.44 282.624 61.44c34.816 0 57.344 22.528 57.344 57.344v112.64c0 32.768-22.528 55.296-57.344 55.296z m452.608 0c-34.816 0-57.344-22.528-57.344-57.344V118.784c0-34.816 22.528-57.344 57.344-57.344 34.816 0 57.344 22.528 57.344 57.344v112.64c0 32.768-22.528 55.296-57.344 55.296z m0 0"  /></svg>