<?xml version="1.0" standalone="no"?><!DOCTYPE svg PUBLIC "-//W3C//DTD SVG 1.1//EN" "http://www.w3.org/Graphics/SVG/1.1/DTD/svg11.dtd"><svg class="icon" width="16px" height="12.45px" viewBox="0 0 1316 1024" version="1.1" xmlns="http://www.w3.org/2000/svg"><path fill="" d="M195.072 358.4L273.042286 0 1316.571429 307.2l-341.357715 294.546286zM438.857143 563.2l146.285714 51.2-224.329143 209.042286-48.786285-42.203429zM317.44 665.6a128.292571 128.292571 0 1 1-121.709714 128.146286A125.074286 125.074286 0 0 1 317.44 665.6z m865.572571 78.189714l-56.612571-16.603428 50.468571-203.922286 56.539429 16.384z m-1057.645714 24.429715h187.904v128H125.44V768zM0 640h125.366857V1024H0V640zM146.285714 512l48.786286-102.4 789.942857 244.882286 136.557714-95.085715-58.514285 211.163429z" /></svg>