<?xml version="1.0" standalone="no"?><!DOCTYPE svg PUBLIC "-//W3C//DTD SVG 1.1//EN" "http://www.w3.org/Graphics/SVG/1.1/DTD/svg11.dtd"><svg class="icon" width="16px" height="16.00px" viewBox="0 0 1024 1024" version="1.1" xmlns="http://www.w3.org/2000/svg"><path fill="" d="M207.243 839.341c0 41.946-34.012 75.95-75.949 75.95-41.956 0-75.959-34.004-75.959-75.95V184.26c0-41.946 34.003-75.949 75.959-75.949 41.937 0 75.949 34.003 75.949 75.949v655.081zM460.851 839.341c0 41.946-34.003 75.95-75.949 75.95-41.957 0-75.959-34.004-75.959-75.95V489.1c0-41.956 34.003-75.959 75.959-75.959 41.946 0 75.949 34.003 75.949 75.959v350.241zM714.459 839.341c0 41.946-34.004 75.95-75.949 75.95-41.955 0-75.959-34.004-75.959-75.95V302.098c0-41.946 34.004-75.949 75.959-75.949 41.945 0 75.949 34.002 75.949 75.949v537.243zM968.067 839.341c0 41.946-34.004 75.95-75.949 75.95-41.947 0-75.959-34.004-75.959-75.95v-414.29c0-41.936 34.012-75.938 75.959-75.938 41.945 0 75.949 34.003 75.949 75.938v414.29z" /></svg>