<?xml version="1.0" standalone="no"?><!DOCTYPE svg PUBLIC "-//W3C//DTD SVG 1.1//EN" "http://www.w3.org/Graphics/SVG/1.1/DTD/svg11.dtd"><svg t="1535124722432" class="icon" style="" viewBox="0 0 1024 1024" version="1.1" xmlns="http://www.w3.org/2000/svg" p-id="1193" xmlns:xlink="http://www.w3.org/1999/xlink" width="200" height="200"><defs><style type="text/css"></style></defs><path d="M993.658391 1024H591.793038a29.152365 29.152365 0 0 1 0-58.30473h372.712987v-58.30473H618.175928a29.152365 29.152365 0 0 1-20.552417-8.454186L9.766069 310.93315a29.152365 29.152365 0 0 1 0-41.104835 29.152365 29.152365 0 0 1 41.104834 0l579.403257 579.257494h363.384231a29.152365 29.152365 0 0 1 29.152365 29.152366v116.60946a29.152365 29.152365 0 0 1-29.152365 29.152365z" fill="" p-id="1194"></path><path d="M979.082208 907.39054a29.152365 29.152365 0 0 1-29.152365-29.152365v-43.728548a255.52048 255.52048 0 0 0-255.083195-255.083195 29.152365 29.152365 0 0 1-20.552417-8.454186l-125.646694-125.646693A72.880913 72.880913 0 0 1 527.220549 393.580105v-138.473734a14.576183 14.576183 0 0 0-4.227093-10.34909L340.791174 62.554999a14.576183 14.576183 0 0 0-20.552417 0L81.480887 301.312869a29.152365 29.152365 0 1 1-41.250597-41.250596L278.98816 21.304403a72.880913 72.880913 0 0 1 103.053611 0L564.244053 204.089732a72.880913 72.880913 0 0 1 21.281226 51.599686V393.580105a14.576183 14.576183 0 0 0 4.372855 10.349089l116.60946 117.33827a313.82521 313.82521 0 0 1 301.726979 313.242163v43.728548a29.152365 29.152365 0 0 1-29.152365 29.152365z" fill="" p-id="1195"></path><path d="M498.068184 572.138341a29.152365 29.152365 0 0 1-20.552417-8.454186 29.152365 29.152365 0 0 1 0-41.250596l87.457095-87.457096a29.152365 29.152365 0 0 1 41.250596 41.250597l-87.457095 87.457095a29.152365 29.152365 0 0 1-20.698179 8.454186zM570.949097 645.019254a29.152365 29.152365 0 0 1-20.552418-8.454186 29.152365 29.152365 0 0 1 0-41.250597l87.457096-87.457095a29.152365 29.152365 0 0 1 41.250596 41.250597l-87.457095 87.457095a29.152365 29.152365 0 0 1-20.698179 8.454186z" fill="" p-id="1196"></path></svg>