<?xml version="1.0" standalone="no"?><!DOCTYPE svg PUBLIC "-//W3C//DTD SVG 1.1//EN" "http://www.w3.org/Graphics/SVG/1.1/DTD/svg11.dtd"><svg t="1535125026560" class="icon" style="" viewBox="0 0 1024 1024" version="1.1" xmlns="http://www.w3.org/2000/svg" p-id="2372" xmlns:xlink="http://www.w3.org/1999/xlink" width="200" height="200"><defs><style type="text/css"></style></defs><path d="M330.4 152.8c-8.8 0-16-7.2-16-16V20c0-8.8 7.2-16 16-16s16 7.2 16 16v116.8c0 9.6-7.2 16-16 16zM693.6 152.8c-8.8 0-16-7.2-16-16V20c0-8.8 7.2-16 16-16s16 7.2 16 16v116.8c0 9.6-7.2 16-16 16zM512 422.4c-52.8 0-95.2-43.2-95.2-95.2s42.4-96 95.2-96 95.2 43.2 95.2 95.2-42.4 96-95.2 96z m0-159.2c-35.2 0-63.2 28.8-63.2 63.2s28.8 63.2 63.2 63.2c35.2 0 63.2-28.8 63.2-63.2s-28-63.2-63.2-63.2z" p-id="2373"></path><path d="M366.4 288c-5.6 0-11.2-3.2-13.6-8-4.8-8-1.6-17.6 5.6-21.6 17.6-10.4 28-28.8 28-48.8 0-31.2-25.6-56-56-56-31.2 0-56 25.6-56 56 0 18.4 9.6 36 24.8 46.4 7.2 4.8 9.6 15.2 4 22.4-4.8 7.2-15.2 9.6-22.4 4-24-16.8-39.2-44-39.2-72.8 0-48.8 39.2-88 88-88s88 39.2 88 88c0 31.2-16.8 60.8-44 76-1.6 1.6-4.8 2.4-7.2 2.4zM657.6 288c-2.4 0-5.6-0.8-8-2.4-27.2-16-44-44.8-44-76 0-48.8 39.2-88 88-88s88 39.2 88 88c0 29.6-14.4 56.8-39.2 72.8-7.2 4.8-17.6 3.2-22.4-4-4.8-7.2-3.2-17.6 4-22.4 15.2-10.4 24.8-28 24.8-46.4 0-31.2-25.6-56-56-56-31.2 0-56 25.6-56 56 0 20 10.4 38.4 28 48.8 8 4.8 10.4 14.4 5.6 21.6-1.6 4.8-7.2 8-12.8 8z" p-id="2374"></path><path d="M576 1020h-1.6c-31.2-0.8-56.8-28-56.8-60.8V769.6c0-3.2-2.4-4.8-5.6-4.8-3.2 0-5.6 2.4-5.6 4.8v192c0 16-6.4 31.2-17.6 42.4-11.2 11.2-26.4 16.8-42.4 16.8-31.2-0.8-56.8-28-56.8-60.8V530.4H328c-32.8 0-59.2-26.4-59.2-59.2V289.6c0-16 6.4-31.2 17.6-42.4 11.2-11.2 27.2-16.8 42.4-16.8 31.2 0.8 56.8 28 56.8 60.8v121.6h252V292c0-32.8 25.6-60 56.8-60.8 16-0.8 31.2 5.6 42.4 16.8 11.2 11.2 17.6 26.4 17.6 42.4V472c0 32.8-26.4 59.2-59.2 59.2h-61.6v430.4c0 16-6.4 31.2-17.6 42.4-9.6 10.4-24.8 16-40 16zM327.2 263.2c-7.2 0-13.6 2.4-18.4 7.2-5.6 4.8-8 12-8 19.2V472c0 15.2 12 27.2 27.2 27.2h77.6c8.8 0 16 7.2 16 16V960c0 15.2 12 28 26.4 28.8 7.2 0 14.4-2.4 19.2-7.2 5.6-4.8 8-12 8-19.2v-192c0-20.8 16.8-36.8 37.6-36.8s37.6 16.8 37.6 36.8V960c0 15.2 12 28 26.4 28.8 7.2 0 14.4-2.4 19.2-7.2 5.6-4.8 8-12 8-19.2v-448c0-8.8 7.2-16 16-16h77.6c15.2 0 27.2-12 27.2-27.2V289.6c0-7.2-3.2-14.4-8-19.2-5.6-4.8-12-8-19.2-7.2-14.4 0.8-26.4 13.6-26.4 28.8v137.6c0 8.8-7.2 16-16 16h-35.2-214.4-36c-8.8 0-16-7.2-16-16V292c0-15.2-12-28-26.4-28.8 0.8 0 0 0 0 0z" p-id="2375"></path></svg>