<?xml version="1.0" standalone="no"?><!DOCTYPE svg PUBLIC "-//W3C//DTD SVG 1.1//EN" "http://www.w3.org/Graphics/SVG/1.1/DTD/svg11.dtd"><svg t="1535125036744" class="icon" style="" viewBox="0 0 1024 1024" version="1.1" xmlns="http://www.w3.org/2000/svg" p-id="2490" xmlns:xlink="http://www.w3.org/1999/xlink" width="200" height="200"><defs><style type="text/css"></style></defs><path d="M512 653.6c-32 0-61.6-12-84-34.4-16.8-16.8-38.4-25.6-61.6-25.6-65.6 0-119.2-52.8-119.2-118.4 0-23.2-8.8-44.8-25.6-61.6-22.4-22.4-35.2-52-35.2-84s12-61.6 34.4-84c16.8-16.8 25.6-38.4 25.6-61.6 0-65.6 52.8-119.2 118.4-119.2 23.2 0 44.8-8.8 61.6-25.6 46.4-46.4 121.6-46.4 168 0C611.2 56 632.8 64.8 656 64.8c67.2 0.8 120 53.6 120 119.2 0 23.2 8.8 44.8 25.6 61.6 46.4 46.4 46.4 121.6 0 168-16 16-25.6 38.4-25.6 61.6 0 65.6-52.8 119.2-118.4 119.2-23.2 0-44.8 8.8-61.6 25.6-22.4 21.6-52 33.6-84 33.6z m0-616.8c-23.2 0-44.8 8.8-61.6 25.6-22.4 22.4-52 35.2-84 35.2C318.4 97.6 280 136 280 184c0 32-12 61.6-34.4 84-33.6 33.6-33.6 88.8 0 122.4 22.4 22.4 35.2 52 35.2 84 0 48 39.2 87.2 86.4 87.2 32 0 61.6 12 84 34.4 33.6 33.6 88.8 33.6 122.4 0 22.4-22.4 52-35.2 84-35.2 48 0 87.2-39.2 87.2-86.4 0-32 12-61.6 34.4-84 16.8-16.8 25.6-38.4 25.6-61.6 0-23.2-8.8-44.8-25.6-61.6C756.8 245.6 744 216 744 184c0-48-39.2-87.2-86.4-87.2-32 0-61.6-12-84-34.4-16.8-16.8-38.4-25.6-61.6-25.6z" p-id="2491"></path><path d="M652.8 1019.2h-2.4c-5.6-0.8-10.4-4.8-12.8-9.6L512 689.6l-126.4 319.2c-2.4 5.6-7.2 8.8-12.8 9.6-5.6 0.8-11.2-1.6-15.2-6.4L276 904l-120.8 28c-5.6 1.6-12-0.8-16-4.8-4-4.8-4.8-10.4-2.4-16L281.6 544c1.6-4.8 6.4-8.8 11.2-9.6 4.8-0.8 10.4 0 14.4 4 16 15.2 36.8 23.2 59.2 23.2 32 0 61.6 12 84 34.4 16.8 16.8 38.4 25.6 61.6 25.6 23.2 0 44.8-8.8 61.6-25.6 22.4-22.4 52-35.2 84-35.2 22.4 0 43.2-8 59.2-23.2 4-4 9.6-4.8 14.4-4 4.8 0.8 9.6 4.8 11.2 9.6l144.8 366.4c2.4 5.6 0.8 12-2.4 16-4 4.8-9.6 6.4-16 4.8L748 904l-82.4 108.8c-3.2 4-8 6.4-12.8 6.4zM532 652l125.6 318.4 71.2-94.4c4-4.8 10.4-7.2 16-5.6l100.8 23.2-124.8-318.4c-18.4 12-40.8 18.4-63.2 18.4-23.2 0-44.8 8.8-61.6 25.6-17.6 17.6-40 28.8-64 32.8z m-249.6 217.6c4.8 0 9.6 2.4 12.8 6.4l71.2 94.4 125.6-318.4c-24-4-46.4-15.2-64-32.8-16.8-16.8-38.4-25.6-61.6-25.6-22.4 0-44.8-6.4-63.2-18.4l-125.6 318.4 100.8-23.2c1.6-0.8 2.4-0.8 4-0.8zM512 524.8c-108 0-195.2-88-195.2-195.2 0-108 88-195.2 195.2-195.2 108 0 195.2 88 195.2 195.2 0 108-87.2 195.2-195.2 195.2z m0-374.4c-99.2 0-179.2 80.8-179.2 179.2 0 99.2 80.8 179.2 179.2 179.2 99.2 0 179.2-80.8 179.2-179.2 0-99.2-80-179.2-179.2-179.2z" p-id="2492"></path></svg>