<?xml version="1.0" standalone="no"?><!DOCTYPE svg PUBLIC "-//W3C//DTD SVG 1.1//EN" "http://www.w3.org/Graphics/SVG/1.1/DTD/svg11.dtd"><svg t="1535125000370" class="icon" style="" viewBox="0 0 1024 1024" version="1.1" xmlns="http://www.w3.org/2000/svg" p-id="2254" xmlns:xlink="http://www.w3.org/1999/xlink" width="200" height="200"><defs><style type="text/css"></style></defs><path d="M283.2 188c-51.2 0-92-41.6-92-92C191.2 44.8 232.8 4 283.2 4S375.2 45.6 375.2 96c0 51.2-40.8 92-92 92z m0-152c-32.8 0-60 27.2-60 60s27.2 60 60 60 60-27.2 60-60-26.4-60-60-60zM574.4 586.4c-3.2 0-6.4-0.8-8.8-2.4-4.8-3.2-7.2-8-7.2-13.6V336.8c0-5.6 2.4-10.4 7.2-13.6 4.8-3.2 10.4-3.2 15.2-1.6l264 116.8c5.6 2.4 9.6 8 9.6 14.4s-4 12-9.6 14.4L580.8 584c-2.4 1.6-4.8 2.4-6.4 2.4z m16-224.8v184l208.8-92-208.8-92z" p-id="2255"></path><path d="M283.2 591.2c-4 0-7.2-1.6-10.4-4-4-3.2-5.6-7.2-5.6-12v-360c0-4.8 2.4-9.6 5.6-12 4-3.2 8.8-4 12.8-3.2L576 254.4c7.2 1.6 12.8 8 12.8 16v251.2c0 8-5.6 14.4-12.8 16L285.6 592c0-0.8-1.6-0.8-2.4-0.8z m16-356.8v321.6l258.4-48V282.4l-258.4-48zM380.8 1020H185.6c-8.8 0-16-7.2-16-16v-64c0-8.8 7.2-16 16-16h195.2c8.8 0 16 7.2 16 16v64c0 8.8-7.2 16-16 16z m-179.2-32h163.2v-32H201.6v32z" p-id="2256"></path><path d="M283.2 956c-8.8 0-16-7.2-16-16v-768c0-8.8 7.2-16 16-16s16 7.2 16 16v767.2c0 9.6-7.2 16.8-16 16.8z" p-id="2257"></path></svg>