<?xml version="1.0" standalone="no"?><!DOCTYPE svg PUBLIC "-//W3C//DTD SVG 1.1//EN" "http://www.w3.org/Graphics/SVG/1.1/DTD/svg11.dtd"><svg t="1543476169778" class="icon" style="" viewBox="0 0 1024 1024" version="1.1" xmlns="http://www.w3.org/2000/svg" p-id="2501" xmlns:xlink="http://www.w3.org/1999/xlink" width="16" height="16"><defs><style type="text/css"></style></defs><path d="M512 1024a512 512 0 1 1 512-512 512 512 0 0 1-512 512z m256-585.142857a36.571429 36.571429 0 0 0 0-73.142857H658.285714V256a36.571429 36.571429 0 0 0-73.142857 0V365.714286H438.857143V256a36.571429 36.571429 0 0 0-73.142857 0V365.714286H256a36.571429 36.571429 0 0 0 0 73.142857H365.714286v146.285714H256a36.571429 36.571429 0 0 0 0 73.142857H365.714286v109.714286a36.571429 36.571429 0 0 0 73.142857 0V658.285714h146.285714v182.857143a36.571429 36.571429 0 0 0 73.142857 0V658.285714h109.714286a36.571429 36.571429 0 0 0 0-73.142857H658.285714V438.857143h109.714286zM438.857143 438.857143h146.285714v146.285714H438.857143V438.857143z" p-id="2502"></path></svg>