<?xml version="1.0" standalone="no"?><!DOCTYPE svg PUBLIC "-//W3C//DTD SVG 1.1//EN" "http://www.w3.org/Graphics/SVG/1.1/DTD/svg11.dtd"><svg class="icon" width="16px" height="14.94px" viewBox="0 0 1097 1024" version="1.1" xmlns="http://www.w3.org/2000/svg"><path fill="" d="M1083.904 507.538286a56.905143 56.905143 0 0 1-83.017143 9.142857L548.571429 128.731429l-452.242286 387.657142a56.905143 56.905143 0 0 1-83.017143-9.142857 64.950857 64.950857 0 0 1 8.630857-87.771428l460.141714-394.971429a101.449143 101.449143 0 0 1 132.608 0l460.8 394.971429a64.950857 64.950857 0 0 1 8.411429 88.064z m-870.4 226.011428a60.781714 60.781714 0 0 1-59.026286-62.390857V519.314286a63.195429 63.195429 0 0 1 29.257143-54.052572 56.246857 56.246857 0 0 1 59.026286 0 63.195429 63.195429 0 0 1 29.257143 54.052572v151.552a60.781714 60.781714 0 0 1-58.441143 62.683428z m55.076571 54.564572l64.950858-68.242286a226.742857 226.742857 0 0 0 39.350857 58.514286 214.235429 214.235429 0 0 0 55.076571 42.496l-64.146286 67.876571a115.492571 115.492571 0 0 1-60.416 115.419429 103.497143 103.497143 0 0 1-122.953142-21.942857 118.930286 118.930286 0 0 1-20.918858-130.048 106.788571 106.788571 0 0 1 109.202286-64.146286zM243.053714 936.228571a34.377143 34.377143 0 0 0 39.058286-8.411428 39.424 39.424 0 0 0 0-53.248 34.450286 34.450286 0 0 0-39.058286-8.411429 38.765714 38.765714 0 0 0 0 70.070857zM584.411429 635.611429l113.737142-120.32a218.989714 218.989714 0 0 1-61.44 277.942857 192.512 192.512 0 0 1-267.190857-39.936 220.452571 220.452571 0 0 1 13.750857-285.257143 191.853714 191.853714 0 0 1 237.348572-34.962286L506.88 553.691429l16.530286 64.512z m-95.670858 263.314285h335.725715V520.411429a64.292571 64.292571 0 0 1 17.261714-43.885715 57.490286 57.490286 0 0 1 41.764571-18.285714 60.781714 60.781714 0 0 1 59.026286 61.586286V1024h-453.485714a62.537143 62.537143 0 0 1-0.292572-124.781714z" /></svg>