<?xml version="1.0" standalone="no"?><!DOCTYPE svg PUBLIC "-//W3C//DTD SVG 1.1//EN" "http://www.w3.org/Graphics/SVG/1.1/DTD/svg11.dtd"><svg class="icon" width="16px" height="14.00px" viewBox="0 0 1170 1024" version="1.1" xmlns="http://www.w3.org/2000/svg"><path fill="" d="M852.303531 57.302235l-0.438521-0.657781a135.795254 135.795254 0 0 0-21.341342-19.221825 168.099615 168.099615 0 0 0-222.330013 44.509854l-133.16413 138.8649a31.427319 31.427319 0 0 1-23.022338 9.720543 33.035229 33.035229 0 0 1-23.022339-9.720543 34.423878 34.423878 0 0 1 0-47.140979L561.271937 35.668546A183.594014 183.594014 0 0 0 451.641753 0.002193a181.401411 181.401411 0 0 0-133.748824 57.957823 203.254361 203.254361 0 0 0-55.76522 139.668854 197.334331 197.334331 0 0 0 55.545959 139.449594l265.816652 277.218191a1.607909 1.607909 0 0 0 1.461736 0.438521 2.850385 2.850385 0 0 0 1.461736-0.438521l265.816652-276.998931a204.64301 204.64301 0 0 0 0-279.995489zM3.985169 875.362666s323.262868-179.720414 376.177704-201.134844a245.937045 245.937045 0 0 1 248.495083 34.789312 336.19923 336.19923 0 0 0 249.883732 41.513296 25.653463 25.653463 0 0 1 27.99224 27.042112 64.389461 64.389461 0 0 1-53.93805 48.237281 408.262804 408.262804 0 0 1-226.569046-16.663788c-7.308679-1.973343-18.271697 34.570051 23.826293 48.018021a408.774412 408.774412 0 0 0 374.277447-71.113446c111.384267-84.122894 169.049743 0 135.649081 35.885613-67.166759 73.086789-259.458101 207.347221-422.807075 201.134844a2730.814789 2730.814789 0 0 1-341.096045-55.107439c-48.529628 0-237.239718 28.357674-277.072018 28.357674s-138.280205-97.278516-115.477127-120.885549z m0 0" /></svg>