<?xml version="1.0" standalone="no"?><!DOCTYPE svg PUBLIC "-//W3C//DTD SVG 1.1//EN" "http://www.w3.org/Graphics/SVG/1.1/DTD/svg11.dtd"><svg class="icon" width="16px" height="14.41px" viewBox="0 0 1137 1024" version="1.1" xmlns="http://www.w3.org/2000/svg"><path fill="" d="M1128.755652 541.828105L588.04242 7.570895a27.957138 27.957138 0 0 0-36.972817-1.166065L9.275627 541.828105a27.103919 27.103919 0 0 0-9.04412 23.947009 29.379169 29.379169 0 0 0 23.890128 22.752503 31.768182 31.768182 0 0 0 28.440629-9.584492l89.929268-89.218252v510.338641a24.970872 24.970872 0 0 0 25.880972 23.947009h800.603697a24.970872 24.970872 0 0 0 25.880972-23.947009v-509.087253l89.929268 88.620999a31.284692 31.284692 0 0 0 28.440628 9.584491 29.037882 29.037882 0 0 0 23.918569-22.752502 24.800228 24.800228 0 0 0-8.361545-24.515822z m-350.672951 146.071069l-1.706438 1.734878c-11.717539 11.376251-137.425118 129.973673-182.389751 170.643772a22.752503 22.752503 0 0 1-31.540657 0c-45.106837-40.613218-170.245603-159.26752-182.020024-170.643772l-1.706438-1.734878a153.238107 153.238107 0 0 1-35.636107-97.636679 146.497678 146.497678 0 0 1 144.364631-147.891269 141.406806 141.406806 0 0 1 87.654017 30.602117l0.568813 0.568812v-0.568812l1.677997 1.251387 1.706438-1.166065v0.568812l0.568812-0.568812a144.30775 144.30775 0 0 1 88.365034-30.602117 146.639881 146.639881 0 0 1 145.047206 147.891269 154.176648 154.176648 0 0 1-35.067295 97.494475z m0 0" /></svg>