<?xml version="1.0" standalone="no"?><!DOCTYPE svg PUBLIC "-//W3C//DTD SVG 1.1//EN" "http://www.w3.org/Graphics/SVG/1.1/DTD/svg11.dtd"><svg class="icon" width="16px" height="16.00px" viewBox="0 0 1024 1024" version="1.1" xmlns="http://www.w3.org/2000/svg"><path fill="" d="M856.641707 237.710222a300.572444 300.572444 0 0 0 88.718222 13.368889 298.040889 298.040889 0 0 0 78.592-10.609778v-182.044444a164.494222 164.494222 0 0 1-126.833778 12.231111 570.140444 570.140444 0 0 0-122.510222-24.860444v-15.815112a29.696 29.696 0 1 0-59.392 0v236.088889l-159.288889-161.024a61.44 61.44 0 0 0-87.608889 0L8.456818 569.457778a29.667556 29.667556 0 0 0 0 41.472l8.533333 8.533333a28.785778 28.785778 0 0 0 41.073778 0l71.907555-72.561778v396.913778h-17.066666a40.106667 40.106667 0 0 0 0 80.184889h798.407111a40.106667 40.106667 0 0 0 0-80.184889h-17.066667V546.986667l71.651556 72.448a28.785778 28.785778 0 0 0 41.073778 0l8.533333-8.533334a29.44 29.44 0 0 0 0-41.472l-241.066667-243.2V219.335111a476.359111 476.359111 0 0 1 82.062222 18.346667z m-238.222223 705.991111h-212.849777v-227.726222h212.849777v227.697778z m0 0" /></svg>