<?xml version="1.0" standalone="no"?><!DOCTYPE svg PUBLIC "-//W3C//DTD SVG 1.1//EN" "http://www.w3.org/Graphics/SVG/1.1/DTD/svg11.dtd"><svg class="icon" width="16px" height="14.00px" viewBox="0 0 1170 1024" version="1.1" xmlns="http://www.w3.org/2000/svg"><path fill="" d="M846.737331 997.5992V616.945008a261.667762 261.667762 0 1 0-522.604199 0v380.654192H249.464942V616.945008a336.409084 336.409084 0 1 1 671.940579 0v380.654192h-74.66819zM585.435232 0a37.297529 37.297529 0 0 1 37.297528 37.297529V146.264819a37.297529 37.297529 0 1 1-74.595057 0V37.297529A37.297529 37.297529 0 0 1 585.435232 0zM292.905593 83.517212a37.663191 37.663191 0 0 1 51.192687 13.456363l49.803171 84.760463a36.566205 36.566205 0 0 1-13.675761 50.168833 37.663191 37.663191 0 0 1-51.192687-13.456363l-49.437509-84.760463a36.566205 36.566205 0 0 1 13.675761-50.168833zM79.212692 308.179974a32.690187 32.690187 0 0 1 47.536066-14.626482l80.445651 52.50907a42.343665 42.343665 0 0 1 12.725039 53.825454 32.690187 32.690187 0 0 1-47.536066 14.626482l-80.445651-52.50907a42.343665 42.343665 0 0 1-12.432509-53.825454zM0.010292 590.983002a38.394515 38.394515 0 0 1 37.297529-39.345236h99.898872a39.418369 39.418369 0 0 1 0 78.763605H37.673483a38.394515 38.394515 0 0 1-37.370661-39.418369z m877.588916-507.46579a37.663191 37.663191 0 0 0-51.192687 13.456363l-49.583773 84.760463a36.566205 36.566205 0 0 0 13.67576 50.168833 37.663191 37.663191 0 0 0 51.192687-13.456363l49.803171-84.760463a36.566205 36.566205 0 0 0-13.895158-50.168833z m213.692901 224.662762a32.690187 32.690187 0 0 0-47.536066-14.626482l-80.445651 52.50907a42.343665 42.343665 0 0 0-12.725039 53.825454 32.690187 32.690187 0 0 0 47.536066 14.626482l80.445651-52.50907a42.343665 42.343665 0 0 0 12.725039-53.825454zM1170.494509 590.983002a38.394515 38.394515 0 0 0-37.297529-39.345236h-99.386945a39.418369 39.418369 0 0 0 0 78.763605h99.53321A38.394515 38.394515 0 0 0 1170.494509 590.983002zM89.670626 945.236395h991.456078a39.345236 39.345236 0 0 1 0 78.690473H89.670626a39.345236 39.345236 0 0 1 0-78.690473z m503.882303-620.967291a292.529639 292.529639 0 0 1 292.529639 292.529639v364.565062h-585.059278V616.652478a292.529639 292.529639 0 0 1 292.529639-292.456506z m15.138409 90.757321L464.327961 677.279246h149.043851l-51.192687 212.083988 144.363377-262.252821H557.498651z" /></svg>