<?xml version="1.0" standalone="no"?><!DOCTYPE svg PUBLIC "-//W3C//DTD SVG 1.1//EN" "http://www.w3.org/Graphics/SVG/1.1/DTD/svg11.dtd"><svg class="icon" width="16px" height="14.94px" viewBox="0 0 1097 1024" version="1.1" xmlns="http://www.w3.org/2000/svg"><path fill="" d="M968.182198 1023.66806H128.608404a124.294649 124.294649 0 0 1-114.57042-59.880775 144.254907 144.254907 0 0 1 7.31145-136.358541l423.33295-750.447219a108.501917 108.501917 0 0 1 207.645178 0l424.064095 750.593448a144.108678 144.108678 0 0 1 7.31145 136.285427 124.294649 124.294649 0 0 1-115.520909 59.80766zM548.358744 78.809388a56.663737 56.663737 0 0 0-39.554944 36.557249l-423.33295 750.520334a65.291248 65.291248 0 0 0-7.823252 58.052912 55.786363 55.786363 0 0 0 51.18015 20.983862h839.35445a55.713248 55.713248 0 0 0 51.180149-20.983862 65.291248 65.291248 0 0 0-7.823251-58.052912l-424.064095-750.593448a56.663737 56.663737 0 0 0-39.554944-36.55725z m0 615.039166A38.165769 38.165769 0 0 1 511.801494 654.439839v-329.015246a36.776593 36.776593 0 1 1 73.553186 0v329.015246a38.165769 38.165769 0 0 1-36.557249 39.408715z m0 175.474798a61.635523 61.635523 0 1 0-57.321768-61.489293 59.515202 59.515202 0 0 0 57.321768 61.489293z m0 0" /></svg>