<?xml version="1.0" standalone="no"?><!DOCTYPE svg PUBLIC "-//W3C//DTD SVG 1.1//EN" "http://www.w3.org/Graphics/SVG/1.1/DTD/svg11.dtd"><svg class="icon" width="16px" height="16.00px" viewBox="0 0 1024 1024" version="1.1" xmlns="http://www.w3.org/2000/svg"><path fill="" d="M305.152 279.04c-8.704 14.336 0 54.272 5.632 67.584 2.048 5.632 7.68 8.704 10.24 13.312 0.512 4.608 1.024 8.704 2.048 13.312 1.536 6.656 3.584 12.8 5.12 19.456 16.896 55.296 46.08 101.888 90.624 129.024 27.136 16.384 58.88 22.016 92.672 7.168 44.032-18.944 73.216-58.88 94.208-100.864 6.656-13.312 12.288-28.16 16.896-43.52l4.608-24.576c2.56-4.608 7.68-7.168 10.24-12.8 6.144-13.824 14.336-52.736 6.144-67.584-2.56-1.024-4.096-1.536-7.168-1.024 4.096-15.36 7.68-31.232 11.264-48.128 12.8-71.168-17.92-123.904-57.856-148.992-31.232-19.456-100.352-27.648-100.864-74.752-8.704 2.048-13.824 10.24-19.968 15.36C471.04 12.8 476.16 6.656 481.28 0h-1.024c-11.776 12.288-33.28 21.504-36.864 41.472-21.504-15.36-57.856 13.312-71.68 23.552C328.192 97.28 293.376 148.48 307.712 231.424c2.048 15.36 4.608 30.208 6.656 45.568v2.048c-3.584-1.024-5.632-1.024-9.216 0z m157.696-261.12S457.216 32.768 456.192 35.84v1.024c-1.024 0-2.048-0.512-2.56-0.512 1.536-7.68 5.632-13.312 9.216-18.432zM933.888 823.808c-14.336-70.144-55.808-117.248-121.856-135.168-14.336-4.096-31.232-4.608-49.664-4.096-5.632 0.512-11.776 1.536-17.408 2.048-9.728 3.072-19.968 5.632-29.696 8.704-47.104 19.456-81.408 57.856-96.768 108.544-29.184 96.256 30.208 178.176 93.184 205.312 17.92 7.68 44.544 17.408 72.192 13.312 71.168-11.264 114.688-44.032 139.264-101.376 5.12-11.776 8.192-24.576 11.264-37.888 3.584-17.408 3.072-41.984-0.512-59.392z m-151.04 152.576c-17.408 6.656-32.768-8.704-28.16-26.624 2.56-8.192 8.192-10.752 15.36-14.336 28.672-0.512 33.28 33.28 12.8 40.96z m13.824-107.52c-3.584 19.968-1.024 40.96-20.48 45.056-25.6 5.12-22.016-32.256-25.088-50.176-5.12-26.624-14.336-100.352 1.024-121.344 4.608-6.656 11.264-7.68 18.944-11.264 14.848 0 22.528 4.608 28.16 14.336 10.752 20.48 1.536 99.328-2.56 123.392zM591.36 766.976c28.672-66.048 80.384-105.472 162.816-118.272 17.408-2.56 34.816 1.536 50.176 3.072-6.144-23.552-24.576-36.864-42.496-48.64-26.112-17.408-56.32-31.232-87.552-43.52-36.352-14.336-69.632-22.528-87.552-55.808-19.456 39.936-43.008 84.992-79.872 108.032-25.6 16.384-55.808 15.872-79.872-1.536-24.576-17.408-40.448-43.52-55.808-70.144-5.12-11.776-10.752-23.04-15.872-34.816v-1.024h-0.512c-5.632 17.92-26.112 27.136-40.96 35.84-22.016 12.8-47.616 23.04-72.704 32.768-19.456 7.68-39.424 12.288-55.296 22.528-66.56 41.472-73.728 144.384-90.112 236.544-3.584 20.48-2.56 41.984-6.144 64-1.536 9.728-2.56 23.04-1.024 33.28 2.56 13.824 5.12 25.6 12.288 34.304 5.632 6.144 17.408 9.216 25.6 12.288 7.168 3.072 14.336 5.632 21.504 8.192h471.04c-16.896-20.992-29.696-47.104-37.888-74.24-14.848-47.104-6.656-103.936 10.24-142.848z" /></svg>