<?xml version="1.0" standalone="no"?><!DOCTYPE svg PUBLIC "-//W3C//DTD SVG 1.1//EN" "http://www.w3.org/Graphics/SVG/1.1/DTD/svg11.dtd"><svg class="icon" width="16px" height="14.85px" viewBox="0 0 1103 1024" version="1.1" xmlns="http://www.w3.org/2000/svg"><path fill="" d="M591.773495 1023.956116A498.812908 498.812908 0 0 1 93.618845 439.789152l72.188906 49.661872 2.70617-0.658258c-0.438838 7.82595-2.340471 15.286202-2.340471 23.185292A425.600046 425.600046 0 1 0 591.700356 80.819393a416.896419 416.896419 0 0 0-211.154379 58.877477l-73.139723-50.539548A498.081511 498.081511 0 0 1 591.773495 0a511.978058 511.978058 0 0 1 0 1023.956116z m0-269.446738a242.53132 242.53132 0 0 0 0-485.06264 234.047112 234.047112 0 0 0-104.955501 25.525763l-74.163679-50.539548a314.500807 314.500807 0 0 1 179.19232-55.805608A323.350714 323.350714 0 1 1 272.591746 511.978058c0-10.312701 2.047912-20.040284 2.998729-30.133566l79.13718 53.903976a239.752011 239.752011 0 0 0 237.04584 218.76091z m-15.57876-168.221362a62.315044 62.315044 0 0 1-35.765325-11.190377L268.569061 389.907861l-88.645343 21.941917L6.582575 292.55889a14.189106 14.189106 0 0 1-5.851178-14.627944 13.677128 13.677128 0 0 1 10.824679-10.970959l149.497593-29.987286-27.134837-151.179806a14.627945 14.627945 0 0 1 6.143737-14.627945 13.09201 13.09201 0 0 1 14.627944 0L328.397354 190.748396l12.287474 91.351514 271.49465 185.043498a65.82575 65.82575 0 0 1 16.895276 90.839536 63.850978 63.850978 0 0 1-52.880019 28.597631z" /></svg>